STARTFONT 2.1
COMMENT
COMMENT Converted from OpenType font "Context_Ultra_Condensed.ttf" by "otf2bdf 3.0".
COMMENT
FONT -FreeType-Context Ultra Condensed SSi-Medium-R-Normal--17-120-100-100-P-53-ISO10646-1
SIZE 12 100 100
FONTBOUNDINGBOX 20 20 -3 -4
STARTPROPERTIES 19
FOUNDRY "FreeType"
FAMILY_NAME "Context Ultra Condensed SSi"
WEIGHT_NAME "Medium"
SLANT "R"
SETWIDTH_NAME "Normal"
ADD_STYLE_NAME ""
PIXEL_SIZE 17
POINT_SIZE 120
RESOLUTION_X 100
RESOLUTION_Y 100
SPACING "P"
AVERAGE_WIDTH 53
CHARSET_REGISTRY "ISO10646"
CHARSET_ENCODING "1"
FONT_ASCENT 12
FONT_DESCENT 2
COPYRIGHT "Copyright c 1992 Southern Software, Inc. All Rights Reserved"
_OTF_FONTFILE "Context_Ultra_Condensed.ttf"
_OTF_PSNAME "ContextUltraCondensedSSiUltraCondensed"
ENDPROPERTIES
CHARS 230
STARTCHAR 0020
ENCODING 32
SWIDTH 180 0
DWIDTH 3 0
BBX 0 0 0 0
BITMAP
ENDCHAR
STARTCHAR 0021
ENCODING 33
SWIDTH 180 0
DWIDTH 3 0
BBX 2 12 1 0
BITMAP
C0
C0
C0
C0
C0
C0
C0
C0
C0
C0
00
C0
ENDCHAR
STARTCHAR 0022
ENCODING 34
SWIDTH 360 0
DWIDTH 6 0
BBX 4 5 1 7
BITMAP
B0
B0
B0
B0
B0
ENDCHAR
STARTCHAR 0023
ENCODING 35
SWIDTH 360 0
DWIDTH 6 0
BBX 7 12 -1 0
BITMAP
14
34
24
24
7E
24
24
FE
28
68
48
48
ENDCHAR
STARTCHAR 0024
ENCODING 36
SWIDTH 360 0
DWIDTH 6 0
BBX 5 13 0 -1
BITMAP
20
78
D8
D8
F8
60
30
38
D8
D8
D8
78
20
ENDCHAR
STARTCHAR 0025
ENCODING 37
SWIDTH 480 0
DWIDTH 8 0
BBX 8 12 0 0
BITMAP
66
F4
F4
F8
F8
FE
75
15
15
25
25
27
ENDCHAR
STARTCHAR 0026
ENCODING 38
SWIDTH 360 0
DWIDTH 6 0
BBX 5 12 1 0
BITMAP
70
D0
D0
D0
F0
C0
F8
F8
B8
B8
98
F8
ENDCHAR
STARTCHAR 0027
ENCODING 39
SWIDTH 240 0
DWIDTH 4 0
BBX 2 5 1 7
BITMAP
C0
C0
C0
C0
C0
ENDCHAR
STARTCHAR 0028
ENCODING 40
SWIDTH 180 0
DWIDTH 3 0
BBX 3 14 0 -2
BITMAP
60
60
40
40
C0
C0
C0
C0
C0
C0
40
40
60
20
ENDCHAR
STARTCHAR 0029
ENCODING 41
SWIDTH 180 0
DWIDTH 3 0
BBX 3 14 0 -2
BITMAP
80
C0
40
40
40
60
60
60
40
40
40
C0
C0
80
ENDCHAR
STARTCHAR 002A
ENCODING 42
SWIDTH 300 0
DWIDTH 5 0
BBX 5 4 0 8
BITMAP
20
F8
20
50
ENDCHAR
STARTCHAR 002B
ENCODING 43
SWIDTH 480 0
DWIDTH 8 0
BBX 8 8 0 1
BITMAP
18
18
18
18
FF
18
18
18
ENDCHAR
STARTCHAR 002C
ENCODING 44
SWIDTH 180 0
DWIDTH 3 0
BBX 2 3 0 -2
BITMAP
40
40
80
ENDCHAR
STARTCHAR 002D
ENCODING 45
SWIDTH 180 0
DWIDTH 3 0
BBX 2 1 0 5
BITMAP
C0
ENDCHAR
STARTCHAR 002E
ENCODING 46
SWIDTH 180 0
DWIDTH 3 0
BBX 1 1 1 0
BITMAP
80
ENDCHAR
STARTCHAR 002F
ENCODING 47
SWIDTH 300 0
DWIDTH 5 0
BBX 5 12 0 0
BITMAP
08
10
10
10
20
20
20
40
40
40
80
80
ENDCHAR
STARTCHAR 0030
ENCODING 48
SWIDTH 360 0
DWIDTH 6 0
BBX 5 12 0 0
BITMAP
70
58
D8
D8
D8
D8
D8
D8
D8
D8
58
70
ENDCHAR
STARTCHAR 0031
ENCODING 49
SWIDTH 360 0
DWIDTH 6 0
BBX 3 12 1 0
BITMAP
60
E0
E0
60
60
60
60
60
60
60
60
60
ENDCHAR
STARTCHAR 0032
ENCODING 50
SWIDTH 360 0
DWIDTH 6 0
BBX 5 12 0 0
BITMAP
70
58
D8
D8
18
38
30
70
60
60
C0
F8
ENDCHAR
STARTCHAR 0033
ENCODING 51
SWIDTH 360 0
DWIDTH 6 0
BBX 5 12 0 0
BITMAP
70
58
D8
D8
18
30
18
D8
D8
D8
58
70
ENDCHAR
STARTCHAR 0034
ENCODING 52
SWIDTH 360 0
DWIDTH 6 0
BBX 5 12 0 0
BITMAP
38
38
38
78
58
58
58
D8
F8
18
18
18
ENDCHAR
STARTCHAR 0035
ENCODING 53
SWIDTH 360 0
DWIDTH 6 0
BBX 5 12 0 0
BITMAP
78
40
40
40
40
78
18
18
D8
D8
58
70
ENDCHAR
STARTCHAR 0036
ENCODING 54
SWIDTH 360 0
DWIDTH 6 0
BBX 5 12 0 0
BITMAP
70
58
D8
D8
D8
F8
D8
D8
D8
D8
58
78
ENDCHAR
STARTCHAR 0037
ENCODING 55
SWIDTH 360 0
DWIDTH 6 0
BBX 5 12 0 0
BITMAP
F8
18
18
18
10
30
30
30
30
60
60
60
ENDCHAR
STARTCHAR 0038
ENCODING 56
SWIDTH 360 0
DWIDTH 6 0
BBX 5 12 0 0
BITMAP
70
58
D8
D8
58
30
58
D8
D8
D8
58
70
ENDCHAR
STARTCHAR 0039
ENCODING 57
SWIDTH 360 0
DWIDTH 6 0
BBX 5 12 0 0
BITMAP
70
58
D8
D8
D8
D8
D8
78
18
D8
58
70
ENDCHAR
STARTCHAR 003A
ENCODING 58
SWIDTH 180 0
DWIDTH 3 0
BBX 1 8 1 0
BITMAP
80
00
00
00
00
00
00
80
ENDCHAR
STARTCHAR 003B
ENCODING 59
SWIDTH 180 0
DWIDTH 3 0
BBX 2 10 0 -2
BITMAP
40
00
00
00
00
00
00
40
C0
80
ENDCHAR
STARTCHAR 003C
ENCODING 60
SWIDTH 480 0
DWIDTH 8 0
BBX 7 8 1 1
BITMAP
02
0E
38
E0
C0
70
0C
02
ENDCHAR
STARTCHAR 003D
ENCODING 61
SWIDTH 480 0
DWIDTH 8 0
BBX 8 4 0 3
BITMAP
FF
00
00
FF
ENDCHAR
STARTCHAR 003E
ENCODING 62
SWIDTH 480 0
DWIDTH 8 0
BBX 7 8 1 0
BITMAP
80
E0
38
0E
0E
70
C0
80
ENDCHAR
STARTCHAR 003F
ENCODING 63
SWIDTH 360 0
DWIDTH 6 0
BBX 4 12 1 0
BITMAP
E0
B0
B0
B0
B0
20
60
60
60
60
00
60
ENDCHAR
STARTCHAR 0040
ENCODING 64
SWIDTH 780 0
DWIDTH 13 0
BBX 12 12 1 0
BITMAP
1F80
30C0
4EA0
D9A0
91B0
B1B0
B120
B320
DDC0
4060
30C0
1F00
ENDCHAR
STARTCHAR 0041
ENCODING 65
SWIDTH 360 0
DWIDTH 6 0
BBX 5 12 0 0
BITMAP
70
70
70
70
58
58
58
78
D8
D8
C8
C8
ENDCHAR
STARTCHAR 0042
ENCODING 66
SWIDTH 360 0
DWIDTH 6 0
BBX 5 12 0 0
BITMAP
F0
D8
D8
D8
D8
E0
D8
D8
D8
D8
D8
F0
ENDCHAR
STARTCHAR 0043
ENCODING 67
SWIDTH 360 0
DWIDTH 6 0
BBX 5 12 0 0
BITMAP
78
58
D8
D8
C0
C0
C0
C0
D8
D8
58
70
ENDCHAR
STARTCHAR 0044
ENCODING 68
SWIDTH 360 0
DWIDTH 6 0
BBX 5 12 0 0
BITMAP
F0
D8
D8
D8
D8
D8
D8
D8
D8
D8
D8
F0
ENDCHAR
STARTCHAR 0045
ENCODING 69
SWIDTH 300 0
DWIDTH 5 0
BBX 3 12 1 0
BITMAP
E0
80
80
80
80
E0
80
80
80
80
80
E0
ENDCHAR
STARTCHAR 0046
ENCODING 70
SWIDTH 300 0
DWIDTH 5 0
BBX 3 12 1 0
BITMAP
E0
80
80
80
80
E0
80
80
80
80
80
80
ENDCHAR
STARTCHAR 0047
ENCODING 71
SWIDTH 360 0
DWIDTH 6 0
BBX 5 12 0 0
BITMAP
78
58
D8
D8
C0
C0
D8
D8
D8
D8
58
78
ENDCHAR
STARTCHAR 0048
ENCODING 72
SWIDTH 360 0
DWIDTH 6 0
BBX 4 12 1 0
BITMAP
B0
B0
B0
B0
B0
F0
B0
B0
B0
B0
B0
B0
ENDCHAR
STARTCHAR 0049
ENCODING 73
SWIDTH 180 0
DWIDTH 3 0
BBX 1 12 1 0
BITMAP
80
80
80
80
80
80
80
80
80
80
80
80
ENDCHAR
STARTCHAR 004A
ENCODING 74
SWIDTH 360 0
DWIDTH 6 0
BBX 4 12 1 0
BITMAP
30
30
30
30
30
30
30
B0
B0
B0
B0
E0
ENDCHAR
STARTCHAR 004B
ENCODING 75
SWIDTH 360 0
DWIDTH 6 0
BBX 4 12 1 0
BITMAP
90
B0
B0
B0
A0
E0
E0
A0
B0
B0
B0
90
ENDCHAR
STARTCHAR 004C
ENCODING 76
SWIDTH 300 0
DWIDTH 5 0
BBX 4 12 1 0
BITMAP
80
80
80
80
80
80
80
80
80
80
80
F0
ENDCHAR
STARTCHAR 004D
ENCODING 77
SWIDTH 480 0
DWIDTH 8 0
BBX 6 12 1 0
BITMAP
CC
CC
EC
FC
FC
FC
B4
B4
B4
B4
B4
B4
ENDCHAR
STARTCHAR 004E
ENCODING 78
SWIDTH 360 0
DWIDTH 6 0
BBX 5 12 1 0
BITMAP
C8
C8
E8
E8
E8
E8
A8
A8
A8
A8
B8
B8
ENDCHAR
STARTCHAR 004F
ENCODING 79
SWIDTH 360 0
DWIDTH 6 0
BBX 5 12 0 0
BITMAP
70
58
D8
D8
D8
D8
D8
D8
D8
D8
58
70
ENDCHAR
STARTCHAR 0050
ENCODING 80
SWIDTH 360 0
DWIDTH 6 0
BBX 5 12 0 0
BITMAP
F0
D8
D8
D8
D8
D8
F8
C0
C0
C0
C0
C0
ENDCHAR
STARTCHAR 0051
ENCODING 81
SWIDTH 360 0
DWIDTH 6 0
BBX 5 13 0 -1
BITMAP
70
58
D8
D8
D8
D8
D8
D8
D8
D8
58
78
18
ENDCHAR
STARTCHAR 0052
ENCODING 82
SWIDTH 360 0
DWIDTH 6 0
BBX 5 12 0 0
BITMAP
F8
D8
D8
D8
D8
F0
D8
D8
D8
D8
D8
D8
ENDCHAR
STARTCHAR 0053
ENCODING 83
SWIDTH 360 0
DWIDTH 6 0
BBX 5 12 0 0
BITMAP
78
58
D8
D8
60
70
30
D8
D8
D8
D8
70
ENDCHAR
STARTCHAR 0054
ENCODING 84
SWIDTH 300 0
DWIDTH 5 0
BBX 5 12 0 0
BITMAP
F8
30
30
30
30
30
30
30
30
30
30
30
ENDCHAR
STARTCHAR 0055
ENCODING 85
SWIDTH 360 0
DWIDTH 6 0
BBX 5 12 0 0
BITMAP
D8
D8
D8
D8
D8
D8
D8
D8
D8
D8
58
70
ENDCHAR
STARTCHAR 0056
ENCODING 86
SWIDTH 360 0
DWIDTH 6 0
BBX 5 12 0 0
BITMAP
C8
C8
D8
D8
58
58
78
78
70
70
70
70
ENDCHAR
STARTCHAR 0057
ENCODING 87
SWIDTH 480 0
DWIDTH 8 0
BBX 8 12 0 0
BITMAP
DB
DB
DB
DA
5A
5E
5E
5E
7E
76
66
66
ENDCHAR
STARTCHAR 0058
ENCODING 88
SWIDTH 360 0
DWIDTH 6 0
BBX 6 12 0 0
BITMAP
CC
D8
58
78
70
70
70
78
58
58
D8
CC
ENDCHAR
STARTCHAR 0059
ENCODING 89
SWIDTH 360 0
DWIDTH 6 0
BBX 5 12 0 0
BITMAP
C8
D8
58
78
70
70
30
30
30
30
30
30
ENDCHAR
STARTCHAR 005A
ENCODING 90
SWIDTH 240 0
DWIDTH 4 0
BBX 4 12 0 0
BITMAP
F0
30
30
30
20
60
60
60
60
40
C0
F0
ENDCHAR
STARTCHAR 005B
ENCODING 91
SWIDTH 240 0
DWIDTH 4 0
BBX 2 14 1 -2
BITMAP
C0
80
80
80
80
80
80
80
80
80
80
80
80
C0
ENDCHAR
STARTCHAR 005C
ENCODING 92
SWIDTH 300 0
DWIDTH 5 0
BBX 7 12 -1 0
BITMAP
80
40
40
20
20
10
10
10
08
08
04
06
ENDCHAR
STARTCHAR 005D
ENCODING 93
SWIDTH 240 0
DWIDTH 4 0
BBX 3 14 0 -2
BITMAP
E0
20
20
20
20
20
20
20
20
20
20
20
20
E0
ENDCHAR
STARTCHAR 005E
ENCODING 94
SWIDTH 480 0
DWIDTH 8 0
BBX 8 7 0 5
BITMAP
18
1C
34
26
62
43
C1
ENDCHAR
STARTCHAR 005F
ENCODING 95
SWIDTH 480 0
DWIDTH 8 0
BBX 8 1 0 -2
BITMAP
FF
ENDCHAR
STARTCHAR 0060
ENCODING 96
SWIDTH 120 0
DWIDTH 2 0
BBX 3 3 -1 11
BITMAP
C0
40
20
ENDCHAR
STARTCHAR 0061
ENCODING 97
SWIDTH 300 0
DWIDTH 5 0
BBX 4 10 0 0
BITMAP
70
D0
D0
30
50
D0
D0
D0
D0
F0
ENDCHAR
STARTCHAR 0062
ENCODING 98
SWIDTH 300 0
DWIDTH 5 0
BBX 4 12 0 0
BITMAP
C0
C0
F0
F0
D0
D0
D0
D0
D0
D0
D0
F0
ENDCHAR
STARTCHAR 0063
ENCODING 99
SWIDTH 300 0
DWIDTH 5 0
BBX 4 10 0 0
BITMAP
70
D0
D0
C0
C0
C0
C0
D0
D0
70
ENDCHAR
STARTCHAR 0064
ENCODING 100
SWIDTH 300 0
DWIDTH 5 0
BBX 4 12 0 0
BITMAP
10
10
D0
F0
D0
D0
D0
D0
D0
D0
D0
F0
ENDCHAR
STARTCHAR 0065
ENCODING 101
SWIDTH 300 0
DWIDTH 5 0
BBX 4 10 0 0
BITMAP
70
D0
D0
D0
F0
C0
C0
D0
D0
70
ENDCHAR
STARTCHAR 0066
ENCODING 102
SWIDTH 180 0
DWIDTH 3 0
BBX 3 12 0 0
BITMAP
60
40
E0
E0
40
40
40
40
40
40
40
40
ENDCHAR
STARTCHAR 0067
ENCODING 103
SWIDTH 300 0
DWIDTH 5 0
BBX 4 12 0 -2
BITMAP
50
F0
D0
D0
D0
D0
D0
F0
F0
50
D0
70
ENDCHAR
STARTCHAR 0068
ENCODING 104
SWIDTH 300 0
DWIDTH 5 0
BBX 4 12 0 0
BITMAP
C0
C0
F0
D0
D0
D0
D0
D0
D0
D0
D0
D0
ENDCHAR
STARTCHAR 0069
ENCODING 105
SWIDTH 120 0
DWIDTH 2 0
BBX 2 12 0 0
BITMAP
C0
00
C0
C0
C0
C0
C0
C0
C0
C0
C0
C0
ENDCHAR
STARTCHAR 006A
ENCODING 106
SWIDTH 120 0
DWIDTH 2 0
BBX 2 14 0 -2
BITMAP
C0
00
C0
C0
C0
C0
C0
C0
C0
C0
C0
C0
C0
C0
ENDCHAR
STARTCHAR 006B
ENCODING 107
SWIDTH 300 0
DWIDTH 5 0
BBX 5 12 0 0
BITMAP
C0
C0
D8
D0
F0
F0
F0
F0
F0
F0
D0
D8
ENDCHAR
STARTCHAR 006C
ENCODING 108
SWIDTH 120 0
DWIDTH 2 0
BBX 2 12 0 0
BITMAP
C0
C0
C0
C0
C0
C0
C0
C0
C0
C0
C0
C0
ENDCHAR
STARTCHAR 006D
ENCODING 109
SWIDTH 420 0
DWIDTH 7 0
BBX 7 10 0 0
BITMAP
FE
D6
D6
D6
D6
D6
D6
D6
D6
D6
ENDCHAR
STARTCHAR 006E
ENCODING 110
SWIDTH 300 0
DWIDTH 5 0
BBX 4 10 0 0
BITMAP
F0
D0
D0
D0
D0
D0
D0
D0
D0
D0
ENDCHAR
STARTCHAR 006F
ENCODING 111
SWIDTH 300 0
DWIDTH 5 0
BBX 4 10 0 0
BITMAP
70
D0
D0
D0
D0
D0
D0
D0
D0
70
ENDCHAR
STARTCHAR 0070
ENCODING 112
SWIDTH 300 0
DWIDTH 5 0
BBX 4 12 0 -2
BITMAP
F0
F0
D0
D0
D0
D0
D0
D0
D0
F0
C0
C0
ENDCHAR
STARTCHAR 0071
ENCODING 113
SWIDTH 300 0
DWIDTH 5 0
BBX 4 12 0 -2
BITMAP
D0
F0
D0
D0
D0
D0
D0
D0
D0
F0
10
10
ENDCHAR
STARTCHAR 0072
ENCODING 114
SWIDTH 300 0
DWIDTH 5 0
BBX 4 10 0 0
BITMAP
F0
D0
D0
D0
D0
C0
C0
C0
C0
C0
ENDCHAR
STARTCHAR 0073
ENCODING 115
SWIDTH 300 0
DWIDTH 5 0
BBX 4 10 0 0
BITMAP
70
D0
D0
E0
60
30
30
D0
D0
70
ENDCHAR
STARTCHAR 0074
ENCODING 116
SWIDTH 180 0
DWIDTH 3 0
BBX 3 11 0 0
BITMAP
40
E0
E0
40
40
40
40
40
40
40
60
ENDCHAR
STARTCHAR 0075
ENCODING 117
SWIDTH 300 0
DWIDTH 5 0
BBX 4 10 0 0
BITMAP
D0
D0
D0
D0
D0
D0
D0
D0
D0
70
ENDCHAR
STARTCHAR 0076
ENCODING 118
SWIDTH 300 0
DWIDTH 5 0
BBX 5 10 0 0
BITMAP
D8
D0
D0
D0
50
70
70
70
60
60
ENDCHAR
STARTCHAR 0077
ENCODING 119
SWIDTH 420 0
DWIDTH 7 0
BBX 7 10 0 0
BITMAP
DA
DA
DE
DE
7E
7E
6E
6C
6C
6C
ENDCHAR
STARTCHAR 0078
ENCODING 120
SWIDTH 240 0
DWIDTH 4 0
BBX 4 10 0 0
BITMAP
D0
F0
70
70
60
60
70
70
F0
D0
ENDCHAR
STARTCHAR 0079
ENCODING 121
SWIDTH 300 0
DWIDTH 5 0
BBX 5 12 0 -2
BITMAP
D8
D0
D0
50
70
70
70
70
60
60
60
E0
ENDCHAR
STARTCHAR 007A
ENCODING 122
SWIDTH 240 0
DWIDTH 4 0
BBX 4 10 0 0
BITMAP
E0
20
20
60
60
40
40
C0
C0
F0
ENDCHAR
STARTCHAR 007B
ENCODING 123
SWIDTH 360 0
DWIDTH 6 0
BBX 4 14 1 -2
BITMAP
30
60
60
60
60
40
C0
C0
40
60
60
60
60
30
ENDCHAR
STARTCHAR 007C
ENCODING 124
SWIDTH 240 0
DWIDTH 4 0
BBX 2 12 1 0
BITMAP
C0
C0
C0
C0
C0
C0
C0
C0
C0
C0
C0
C0
ENDCHAR
STARTCHAR 007D
ENCODING 125
SWIDTH 360 0
DWIDTH 6 0
BBX 5 14 0 -2
BITMAP
E0
20
30
30
30
30
18
18
30
30
30
30
20
E0
ENDCHAR
STARTCHAR 007E
ENCODING 126
SWIDTH 480 0
DWIDTH 8 0
BBX 8 2 0 4
BITMAP
71
8E
ENDCHAR
STARTCHAR 009D
ENCODING 157
SWIDTH 900 0
DWIDTH 15 0
BBX 15 12 0 0
BITMAP
039C
04E4
08C8
1392
14A0
1080
188C
0848
C650
8430
8C50
73A0
ENDCHAR
STARTCHAR 00A0
ENCODING 160
SWIDTH 780 0
DWIDTH 13 0
BBX 0 0 0 0
BITMAP
ENDCHAR
STARTCHAR 00A1
ENCODING 161
SWIDTH 180 0
DWIDTH 3 0
BBX 2 12 1 -2
BITMAP
C0
00
00
C0
C0
C0
C0
C0
C0
C0
C0
C0
ENDCHAR
STARTCHAR 00A2
ENCODING 162
SWIDTH 360 0
DWIDTH 6 0
BBX 4 12 1 -1
BITMAP
20
E0
F0
B0
B0
80
80
80
B0
B0
E0
80
ENDCHAR
STARTCHAR 00A3
ENCODING 163
SWIDTH 360 0
DWIDTH 6 0
BBX 5 12 0 0
BITMAP
78
58
D8
C0
40
60
F0
60
60
60
78
F8
ENDCHAR
STARTCHAR 00A4
ENCODING 164
SWIDTH 360 0
DWIDTH 6 0
BBX 5 5 0 4
BITMAP
B8
48
88
48
B8
ENDCHAR
STARTCHAR 00A5
ENCODING 165
SWIDTH 360 0
DWIDTH 6 0
BBX 5 12 0 0
BITMAP
C8
D8
58
78
70
F8
30
78
30
30
30
30
ENDCHAR
STARTCHAR 00A6
ENCODING 166
SWIDTH 240 0
DWIDTH 4 0
BBX 2 12 1 0
BITMAP
C0
C0
C0
C0
C0
00
00
00
C0
C0
C0
C0
ENDCHAR
STARTCHAR 00A7
ENCODING 167
SWIDTH 360 0
DWIDTH 6 0
BBX 5 14 0 -2
BITMAP
70
58
58
60
70
58
D8
48
78
30
18
58
58
70
ENDCHAR
STARTCHAR 00A8
ENCODING 168
SWIDTH 120 0
DWIDTH 2 0
BBX 4 1 -1 12
BITMAP
D0
ENDCHAR
STARTCHAR 00A9
ENCODING 169
SWIDTH 780 0
DWIDTH 13 0
BBX 13 12 0 0
BITMAP
0F80
3860
67B0
4CD0
4818
D818
D818
4818
4CD0
67B0
3860
0F80
ENDCHAR
STARTCHAR 00AA
ENCODING 170
SWIDTH 180 0
DWIDTH 3 0
BBX 3 6 0 6
BITMAP
E0
60
A0
A0
A0
E0
ENDCHAR
STARTCHAR 00AB
ENCODING 171
SWIDTH 360 0
DWIDTH 6 0
BBX 5 7 0 1
BITMAP
28
68
D0
90
D8
68
28
ENDCHAR
STARTCHAR 00AC
ENCODING 172
SWIDTH 480 0
DWIDTH 8 0
BBX 8 4 0 3
BITMAP
FF
01
01
01
ENDCHAR
STARTCHAR 00AE
ENCODING 174
SWIDTH 780 0
DWIDTH 13 0
BBX 13 12 0 0
BITMAP
0F80
3860
6FB0
4890
48D8
CF98
C918
4998
4890
6070
3860
0F80
ENDCHAR
STARTCHAR 00AF
ENCODING 175
SWIDTH 120 0
DWIDTH 2 0
BBX 4 1 -1 11
BITMAP
F0
ENDCHAR
STARTCHAR 00B0
ENCODING 176
SWIDTH 420 0
DWIDTH 7 0
BBX 5 5 1 7
BITMAP
70
88
88
88
70
ENDCHAR
STARTCHAR 00B1
ENCODING 177
SWIDTH 480 0
DWIDTH 8 0
BBX 8 8 0 1
BITMAP
18
18
18
FF
18
18
18
FF
ENDCHAR
STARTCHAR 00B2
ENCODING 178
SWIDTH 180 0
DWIDTH 3 0
BBX 3 7 0 5
BITMAP
E0
A0
20
60
40
C0
E0
ENDCHAR
STARTCHAR 00B3
ENCODING 179
SWIDTH 180 0
DWIDTH 3 0
BBX 3 7 0 5
BITMAP
E0
A0
A0
60
20
A0
E0
ENDCHAR
STARTCHAR 00B4
ENCODING 180
SWIDTH 120 0
DWIDTH 2 0
BBX 3 3 0 11
BITMAP
20
40
C0
ENDCHAR
STARTCHAR 00B5
ENCODING 181
SWIDTH 300 0
DWIDTH 5 0
BBX 4 12 0 -2
BITMAP
D0
D0
D0
D0
D0
D0
D0
D0
D0
F0
C0
C0
ENDCHAR
STARTCHAR 00B6
ENCODING 182
SWIDTH 600 0
DWIDTH 10 0
BBX 9 15 0 -3
BITMAP
3F80
7F00
FF00
FF00
7F00
3F00
0F00
0F00
0F00
0F00
0F00
0F00
0F00
0F00
0F00
ENDCHAR
STARTCHAR 00B8
ENCODING 184
SWIDTH 120 0
DWIDTH 2 0
BBX 4 4 -1 -4
BITMAP
40
70
10
E0
ENDCHAR
STARTCHAR 00B9
ENCODING 185
SWIDTH 180 0
DWIDTH 3 0
BBX 2 7 0 5
BITMAP
40
C0
40
40
40
40
40
ENDCHAR
STARTCHAR 00BA
ENCODING 186
SWIDTH 180 0
DWIDTH 3 0
BBX 3 6 0 6
BITMAP
E0
A0
A0
A0
A0
C0
ENDCHAR
STARTCHAR 00BB
ENCODING 187
SWIDTH 360 0
DWIDTH 6 0
BBX 5 7 0 1
BITMAP
90
D8
68
68
D8
90
A0
ENDCHAR
STARTCHAR 00BC
ENCODING 188
SWIDTH 480 0
DWIDTH 8 0
BBX 8 12 0 0
BITMAP
44
C4
48
48
48
52
56
16
16
2F
22
22
ENDCHAR
STARTCHAR 00BD
ENCODING 189
SWIDTH 480 0
DWIDTH 8 0
BBX 8 12 0 0
BITMAP
44
C4
48
48
48
57
55
11
22
22
24
47
ENDCHAR
STARTCHAR 00BE
ENCODING 190
SWIDTH 480 0
DWIDTH 8 0
BBX 8 12 0 0
BITMAP
62
A4
A4
64
28
AB
ED
15
15
17
21
21
ENDCHAR
STARTCHAR 00BF
ENCODING 191
SWIDTH 360 0
DWIDTH 6 0
BBX 4 12 1 -2
BITMAP
60
00
00
60
60
40
C0
C0
B0
B0
B0
E0
ENDCHAR
STARTCHAR 00C0
ENCODING 192
SWIDTH 360 0
DWIDTH 6 0
BBX 5 16 0 0
BITMAP
40
20
20
10
70
70
70
70
58
58
58
78
D8
D8
C8
C8
ENDCHAR
STARTCHAR 00C1
ENCODING 193
SWIDTH 360 0
DWIDTH 6 0
BBX 5 16 0 0
BITMAP
18
10
20
00
70
70
70
70
58
58
58
78
D8
D8
C8
C8
ENDCHAR
STARTCHAR 00C2
ENCODING 194
SWIDTH 360 0
DWIDTH 6 0
BBX 5 16 0 0
BITMAP
30
30
58
00
70
70
70
70
58
58
58
78
D8
D8
C8
C8
ENDCHAR
STARTCHAR 00C3
ENCODING 195
SWIDTH 360 0
DWIDTH 6 0
BBX 5 15 0 0
BITMAP
68
90
00
70
70
70
70
58
58
58
78
D8
D8
C8
C8
ENDCHAR
STARTCHAR 00C4
ENCODING 196
SWIDTH 360 0
DWIDTH 6 0
BBX 5 15 0 0
BITMAP
58
00
70
70
70
70
78
58
58
58
78
D8
D8
C8
C8
ENDCHAR
STARTCHAR 00C5
ENCODING 197
SWIDTH 360 0
DWIDTH 6 0
BBX 5 15 0 0
BITMAP
30
70
00
70
70
70
78
58
58
58
78
D8
D8
C8
C8
ENDCHAR
STARTCHAR 00C6
ENCODING 198
SWIDTH 480 0
DWIDTH 8 0
BBX 8 12 0 0
BITMAP
3F
3C
2C
2C
2C
6F
6C
7C
4C
4C
CC
CF
ENDCHAR
STARTCHAR 00C7
ENCODING 199
SWIDTH 360 0
DWIDTH 6 0
BBX 5 16 0 -4
BITMAP
78
58
D8
D8
C0
C0
C0
C0
D8
D8
58
70
20
10
18
70
ENDCHAR
STARTCHAR 00C8
ENCODING 200
SWIDTH 300 0
DWIDTH 5 0
BBX 4 16 0 0
BITMAP
C0
40
20
00
70
40
40
40
40
70
40
40
40
40
40
70
ENDCHAR
STARTCHAR 00C9
ENCODING 201
SWIDTH 300 0
DWIDTH 5 0
BBX 3 16 1 0
BITMAP
20
60
40
80
E0
80
80
80
80
E0
80
80
80
80
80
E0
ENDCHAR
STARTCHAR 00CA
ENCODING 202
SWIDTH 300 0
DWIDTH 5 0
BBX 4 16 0 0
BITMAP
20
70
50
80
70
40
40
40
40
70
40
40
40
40
40
70
ENDCHAR
STARTCHAR 00CB
ENCODING 203
SWIDTH 300 0
DWIDTH 5 0
BBX 4 15 0 0
BITMAP
D0
00
00
70
40
40
40
40
70
40
40
40
40
40
70
ENDCHAR
STARTCHAR 00CC
ENCODING 204
SWIDTH 180 0
DWIDTH 3 0
BBX 4 16 -1 0
BITMAP
C0
60
20
10
60
60
60
60
60
60
60
60
60
60
60
60
ENDCHAR
STARTCHAR 00CD
ENCODING 205
SWIDTH 180 0
DWIDTH 3 0
BBX 3 16 0 0
BITMAP
20
60
40
80
C0
C0
C0
C0
C0
C0
C0
C0
C0
C0
C0
C0
ENDCHAR
STARTCHAR 00CE
ENCODING 206
SWIDTH 180 0
DWIDTH 3 0
BBX 5 16 -1 0
BITMAP
20
70
50
88
60
60
60
60
60
60
60
60
60
60
60
60
ENDCHAR
STARTCHAR 00CF
ENCODING 207
SWIDTH 180 0
DWIDTH 3 0
BBX 4 15 -1 0
BITMAP
D0
00
60
60
60
60
60
60
60
60
60
60
60
60
60
ENDCHAR
STARTCHAR 00D0
ENCODING 208
SWIDTH 360 0
DWIDTH 6 0
BBX 5 12 0 0
BITMAP
F0
D8
D8
D8
D8
F8
D8
D8
D8
D8
D8
F0
ENDCHAR
STARTCHAR 00D1
ENCODING 209
SWIDTH 360 0
DWIDTH 6 0
BBX 5 15 1 0
BITMAP
78
A0
00
C8
C8
E8
E8
E8
E8
A8
A8
A8
A8
B8
B8
ENDCHAR
STARTCHAR 00D2
ENCODING 210
SWIDTH 360 0
DWIDTH 6 0
BBX 5 16 0 0
BITMAP
40
60
20
10
70
58
D8
D8
D8
D8
D8
D8
D8
D8
58
70
ENDCHAR
STARTCHAR 00D3
ENCODING 211
SWIDTH 360 0
DWIDTH 6 0
BBX 5 16 0 0
BITMAP
18
10
20
20
70
58
D8
D8
D8
D8
D8
D8
D8
D8
58
70
ENDCHAR
STARTCHAR 00D4
ENCODING 212
SWIDTH 360 0
DWIDTH 6 0
BBX 5 16 0 0
BITMAP
30
30
50
48
70
58
D8
D8
D8
D8
D8
D8
D8
D8
58
70
ENDCHAR
STARTCHAR 00D5
ENCODING 213
SWIDTH 360 0
DWIDTH 6 0
BBX 5 15 0 0
BITMAP
68
70
00
70
58
D8
D8
D8
D8
D8
D8
D8
D8
58
70
ENDCHAR
STARTCHAR 00D6
ENCODING 214
SWIDTH 360 0
DWIDTH 6 0
BBX 5 15 0 0
BITMAP
58
00
00
70
58
D8
D8
D8
D8
D8
D8
D8
D8
58
70
ENDCHAR
STARTCHAR 00D7
ENCODING 215
SWIDTH 480 0
DWIDTH 8 0
BBX 8 9 0 0
BITMAP
82
C3
66
3C
18
3C
66
C3
82
ENDCHAR
STARTCHAR 00D8
ENCODING 216
SWIDTH 360 0
DWIDTH 6 0
BBX 6 13 0 -1
BITMAP
7C
58
D8
D8
D8
D8
F8
F8
D8
D8
D8
F0
80
ENDCHAR
STARTCHAR 00D9
ENCODING 217
SWIDTH 360 0
DWIDTH 6 0
BBX 5 16 0 0
BITMAP
40
20
20
10
D8
D8
D8
D8
D8
D8
D8
D8
D8
D8
58
70
ENDCHAR
STARTCHAR 00DA
ENCODING 218
SWIDTH 360 0
DWIDTH 6 0
BBX 5 16 0 0
BITMAP
18
10
20
00
D8
D8
D8
D8
D8
D8
D8
D8
D8
D8
58
70
ENDCHAR
STARTCHAR 00DB
ENCODING 219
SWIDTH 360 0
DWIDTH 6 0
BBX 5 16 0 0
BITMAP
30
30
58
00
D8
D8
D8
D8
D8
D8
D8
D8
D8
D8
58
70
ENDCHAR
STARTCHAR 00DC
ENCODING 220
SWIDTH 360 0
DWIDTH 6 0
BBX 5 15 0 0
BITMAP
58
00
D8
D8
D8
D8
D8
D8
D8
D8
D8
D8
D8
58
70
ENDCHAR
STARTCHAR 00DD
ENCODING 221
SWIDTH 360 0
DWIDTH 6 0
BBX 5 16 0 0
BITMAP
18
10
20
00
C8
D8
58
78
70
70
30
30
30
30
30
30
ENDCHAR
STARTCHAR 00DE
ENCODING 222
SWIDTH 360 0
DWIDTH 6 0
BBX 5 12 0 0
BITMAP
C0
C0
F0
D8
D8
D8
D8
D8
F8
C0
C0
C0
ENDCHAR
STARTCHAR 00DF
ENCODING 223
SWIDTH 300 0
DWIDTH 5 0
BBX 4 12 0 0
BITMAP
70
D0
D0
D0
F0
F0
D0
D0
D0
D0
D0
F0
ENDCHAR
STARTCHAR 00E0
ENCODING 224
SWIDTH 300 0
DWIDTH 5 0
BBX 4 14 0 0
BITMAP
C0
40
20
00
70
D0
D0
30
50
D0
D0
D0
D0
F0
ENDCHAR
STARTCHAR 00E1
ENCODING 225
SWIDTH 300 0
DWIDTH 5 0
BBX 4 14 0 0
BITMAP
10
20
20
40
70
D0
D0
30
50
D0
D0
D0
D0
F0
ENDCHAR
STARTCHAR 00E2
ENCODING 226
SWIDTH 300 0
DWIDTH 5 0
BBX 4 14 0 0
BITMAP
20
70
50
80
70
D0
D0
30
50
D0
D0
D0
D0
F0
ENDCHAR
STARTCHAR 00E3
ENCODING 227
SWIDTH 300 0
DWIDTH 5 0
BBX 5 13 0 0
BITMAP
78
80
00
70
D0
D0
30
50
D0
D0
D0
D0
F0
ENDCHAR
STARTCHAR 00E4
ENCODING 228
SWIDTH 300 0
DWIDTH 5 0
BBX 4 13 0 0
BITMAP
D0
00
00
70
D0
D0
30
50
D0
D0
D0
D0
F0
ENDCHAR
STARTCHAR 00E5
ENCODING 229
SWIDTH 300 0
DWIDTH 5 0
BBX 4 13 0 0
BITMAP
70
70
00
70
D0
D0
30
50
D0
D0
D0
D0
F0
ENDCHAR
STARTCHAR 00E6
ENCODING 230
SWIDTH 420 0
DWIDTH 7 0
BBX 7 10 0 0
BITMAP
7C
D6
D6
36
7E
D0
D0
D6
D6
7C
ENDCHAR
STARTCHAR 00E7
ENCODING 231
SWIDTH 300 0
DWIDTH 5 0
BBX 4 14 0 -4
BITMAP
70
D0
D0
C0
C0
C0
C0
D0
D0
70
40
30
10
60
ENDCHAR
STARTCHAR 00E8
ENCODING 232
SWIDTH 300 0
DWIDTH 5 0
BBX 4 14 0 0
BITMAP
C0
40
20
00
70
D0
D0
D0
F0
C0
C0
D0
D0
70
ENDCHAR
STARTCHAR 00E9
ENCODING 233
SWIDTH 300 0
DWIDTH 5 0
BBX 4 14 0 0
BITMAP
10
30
20
40
70
D0
D0
D0
F0
C0
C0
D0
D0
70
ENDCHAR
STARTCHAR 00EA
ENCODING 234
SWIDTH 300 0
DWIDTH 5 0
BBX 4 14 0 0
BITMAP
20
70
50
80
70
D0
D0
D0
F0
C0
C0
D0
D0
70
ENDCHAR
STARTCHAR 00EB
ENCODING 235
SWIDTH 300 0
DWIDTH 5 0
BBX 4 13 0 0
BITMAP
D0
00
20
F0
D0
D0
D0
F0
C0
C0
D0
D0
70
ENDCHAR
STARTCHAR 00EC
ENCODING 236
SWIDTH 120 0
DWIDTH 2 0
BBX 3 14 -1 0
BITMAP
C0
40
20
00
60
60
60
60
60
60
60
60
60
60
ENDCHAR
STARTCHAR 00ED
ENCODING 237
SWIDTH 120 0
DWIDTH 2 0
BBX 3 14 0 0
BITMAP
20
40
40
80
C0
C0
C0
C0
C0
C0
C0
C0
C0
C0
ENDCHAR
STARTCHAR 00EE
ENCODING 238
SWIDTH 120 0
DWIDTH 2 0
BBX 4 14 -1 0
BITMAP
20
60
50
80
60
60
60
60
60
60
60
60
60
60
ENDCHAR
STARTCHAR 00EF
ENCODING 239
SWIDTH 120 0
DWIDTH 2 0
BBX 4 13 -1 0
BITMAP
D0
00
00
60
60
60
60
60
60
60
60
60
60
ENDCHAR
STARTCHAR 00F0
ENCODING 240
SWIDTH 300 0
DWIDTH 5 0
BBX 4 12 0 0
BITMAP
E0
E0
70
D0
D0
D0
D0
D0
D0
D0
D0
70
ENDCHAR
STARTCHAR 00F1
ENCODING 241
SWIDTH 300 0
DWIDTH 5 0
BBX 5 13 0 0
BITMAP
78
80
00
F0
D0
D0
D0
D0
D0
D0
D0
D0
D0
ENDCHAR
STARTCHAR 00F2
ENCODING 242
SWIDTH 300 0
DWIDTH 5 0
BBX 4 14 0 0
BITMAP
C0
40
20
00
70
D0
D0
D0
D0
D0
D0
D0
D0
70
ENDCHAR
STARTCHAR 00F3
ENCODING 243
SWIDTH 300 0
DWIDTH 5 0
BBX 4 14 0 0
BITMAP
10
30
20
40
70
D0
D0
D0
D0
D0
D0
D0
D0
70
ENDCHAR
STARTCHAR 00F4
ENCODING 244
SWIDTH 300 0
DWIDTH 5 0
BBX 4 14 0 0
BITMAP
20
70
50
80
70
D0
D0
D0
D0
D0
D0
D0
D0
70
ENDCHAR
STARTCHAR 00F5
ENCODING 245
SWIDTH 300 0
DWIDTH 5 0
BBX 5 13 0 0
BITMAP
78
B0
00
70
D0
D0
D0
D0
D0
D0
D0
D0
70
ENDCHAR
STARTCHAR 00F6
ENCODING 246
SWIDTH 300 0
DWIDTH 5 0
BBX 4 13 0 0
BITMAP
D0
00
20
F0
D0
D0
D0
D0
D0
D0
D0
D0
70
ENDCHAR
STARTCHAR 00F7
ENCODING 247
SWIDTH 480 0
DWIDTH 8 0
BBX 8 10 0 0
BITMAP
18
18
00
00
00
FF
00
00
18
18
ENDCHAR
STARTCHAR 00F8
ENCODING 248
SWIDTH 300 0
DWIDTH 5 0
BBX 5 11 0 -1
BITMAP
78
D0
D0
F0
F0
F0
D0
D0
D0
F0
80
ENDCHAR
STARTCHAR 00F9
ENCODING 249
SWIDTH 300 0
DWIDTH 5 0
BBX 4 14 0 0
BITMAP
C0
40
20
00
D0
D0
D0
D0
D0
D0
D0
D0
D0
70
ENDCHAR
STARTCHAR 00FA
ENCODING 250
SWIDTH 300 0
DWIDTH 5 0
BBX 4 14 0 0
BITMAP
10
30
20
40
D0
D0
D0
D0
D0
D0
D0
D0
D0
70
ENDCHAR
STARTCHAR 00FB
ENCODING 251
SWIDTH 300 0
DWIDTH 5 0
BBX 4 14 0 0
BITMAP
20
70
50
80
D0
D0
D0
D0
D0
D0
D0
D0
D0
70
ENDCHAR
STARTCHAR 00FC
ENCODING 252
SWIDTH 300 0
DWIDTH 5 0
BBX 4 13 0 0
BITMAP
D0
00
00
D0
D0
D0
D0
D0
D0
D0
D0
D0
70
ENDCHAR
STARTCHAR 00FD
ENCODING 253
SWIDTH 300 0
DWIDTH 5 0
BBX 5 16 0 -2
BITMAP
10
30
20
40
D8
D0
D0
50
70
70
70
70
60
60
60
E0
ENDCHAR
STARTCHAR 00FE
ENCODING 254
SWIDTH 300 0
DWIDTH 5 0
BBX 4 14 0 -2
BITMAP
C0
C0
F0
F0
D0
D0
D0
D0
D0
D0
D0
F0
C0
C0
ENDCHAR
STARTCHAR 00FF
ENCODING 255
SWIDTH 300 0
DWIDTH 5 0
BBX 5 15 0 -2
BITMAP
D0
00
00
D8
D0
D0
50
70
70
70
60
60
60
60
E0
ENDCHAR
STARTCHAR 0131
ENCODING 305
SWIDTH 120 0
DWIDTH 2 0
BBX 2 10 0 0
BITMAP
C0
C0
C0
C0
C0
C0
C0
C0
C0
C0
ENDCHAR
STARTCHAR 0141
ENCODING 321
SWIDTH 300 0
DWIDTH 5 0
BBX 5 12 0 0
BITMAP
40
40
40
40
60
60
C0
C0
40
40
40
78
ENDCHAR
STARTCHAR 0142
ENCODING 322
SWIDTH 120 0
DWIDTH 2 0
BBX 3 12 0 0
BITMAP
C0
C0
C0
E0
E0
C0
C0
C0
C0
C0
C0
C0
ENDCHAR
STARTCHAR 0152
ENCODING 338
SWIDTH 420 0
DWIDTH 7 0
BBX 7 12 0 0
BITMAP
7E
58
D8
D8
D8
DE
D8
D8
D8
D8
D8
7E
ENDCHAR
STARTCHAR 0153
ENCODING 339
SWIDTH 420 0
DWIDTH 7 0
BBX 7 10 0 0
BITMAP
6C
DE
D6
D6
DE
D0
D0
D6
D6
7C
ENDCHAR
STARTCHAR 0160
ENCODING 352
SWIDTH 360 0
DWIDTH 6 0
BBX 5 16 0 0
BITMAP
48
50
30
20
78
58
D8
D8
60
70
30
D8
D8
D8
D8
70
ENDCHAR
STARTCHAR 0161
ENCODING 353
SWIDTH 300 0
DWIDTH 5 0
BBX 4 14 0 0
BITMAP
90
50
60
00
70
D0
D0
E0
60
30
30
D0
D0
70
ENDCHAR
STARTCHAR 0178
ENCODING 376
SWIDTH 360 0
DWIDTH 6 0
BBX 5 15 0 0
BITMAP
58
00
C8
C8
58
78
70
70
70
30
30
30
30
30
30
ENDCHAR
STARTCHAR 017D
ENCODING 381
SWIDTH 240 0
DWIDTH 4 0
BBX 4 15 0 0
BITMAP
D0
60
00
F0
30
30
30
20
60
60
60
60
40
C0
F0
ENDCHAR
STARTCHAR 017E
ENCODING 382
SWIDTH 240 0
DWIDTH 4 0
BBX 4 13 0 0
BITMAP
B0
60
00
E0
20
20
60
60
40
40
C0
C0
F0
ENDCHAR
STARTCHAR 0192
ENCODING 402
SWIDTH 360 0
DWIDTH 6 0
BBX 6 14 0 -2
BITMAP
1C
18
10
30
78
30
30
30
20
60
60
60
60
C0
ENDCHAR
STARTCHAR 02C6
ENCODING 710
SWIDTH 120 0
DWIDTH 2 0
BBX 4 3 -1 11
BITMAP
20
60
D0
ENDCHAR
STARTCHAR 02C7
ENCODING 711
SWIDTH 120 0
DWIDTH 2 0
BBX 4 2 -1 11
BITMAP
D0
60
ENDCHAR
STARTCHAR 02D8
ENCODING 728
SWIDTH 120 0
DWIDTH 2 0
BBX 4 2 -1 11
BITMAP
90
70
ENDCHAR
STARTCHAR 02D9
ENCODING 729
SWIDTH 120 0
DWIDTH 2 0
BBX 2 1 0 11
BITMAP
C0
ENDCHAR
STARTCHAR 02DA
ENCODING 730
SWIDTH 120 0
DWIDTH 2 0
BBX 3 2 0 11
BITMAP
C0
E0
ENDCHAR
STARTCHAR 02DB
ENCODING 731
SWIDTH 120 0
DWIDTH 2 0
BBX 3 4 0 -4
BITMAP
60
80
80
E0
ENDCHAR
STARTCHAR 02DC
ENCODING 732
SWIDTH 120 0
DWIDTH 2 0
BBX 5 2 -1 11
BITMAP
78
A0
ENDCHAR
STARTCHAR 02DD
ENCODING 733
SWIDTH 120 0
DWIDTH 2 0
BBX 5 2 -1 11
BITMAP
78
B0
ENDCHAR
STARTCHAR 2013
ENCODING 8211
SWIDTH 480 0
DWIDTH 8 0
BBX 8 1 0 5
BITMAP
FF
ENDCHAR
STARTCHAR 2014
ENCODING 8212
SWIDTH 1020 0
DWIDTH 17 0
BBX 17 1 0 5
BITMAP
FFFF80
ENDCHAR
STARTCHAR 2018
ENCODING 8216
SWIDTH 180 0
DWIDTH 3 0
BBX 2 3 0 9
BITMAP
C0
40
40
ENDCHAR
STARTCHAR 2019
ENCODING 8217
SWIDTH 180 0
DWIDTH 3 0
BBX 3 3 0 9
BITMAP
60
40
C0
ENDCHAR
STARTCHAR 201A
ENCODING 8218
SWIDTH 180 0
DWIDTH 3 0
BBX 3 3 0 -1
BITMAP
60
40
C0
ENDCHAR
STARTCHAR 201C
ENCODING 8220
SWIDTH 300 0
DWIDTH 5 0
BBX 5 3 0 9
BITMAP
F0
50
58
ENDCHAR
STARTCHAR 201D
ENCODING 8221
SWIDTH 300 0
DWIDTH 5 0
BBX 4 3 1 9
BITMAP
F0
A0
A0
ENDCHAR
STARTCHAR 201E
ENCODING 8222
SWIDTH 300 0
DWIDTH 5 0
BBX 4 3 1 -1
BITMAP
F0
A0
A0
ENDCHAR
STARTCHAR 2020
ENCODING 8224
SWIDTH 360 0
DWIDTH 6 0
BBX 5 14 0 -2
BITMAP
30
30
30
30
F8
30
30
30
30
30
30
30
30
30
ENDCHAR
STARTCHAR 2021
ENCODING 8225
SWIDTH 360 0
DWIDTH 6 0
BBX 5 14 0 -2
BITMAP
30
30
30
30
F8
30
30
30
30
F8
30
30
30
30
ENDCHAR
STARTCHAR 2022
ENCODING 8226
SWIDTH 480 0
DWIDTH 8 0
BBX 6 6 1 3
BITMAP
38
7C
FC
FC
7C
78
ENDCHAR
STARTCHAR 2026
ENCODING 8230
SWIDTH 1020 0
DWIDTH 17 0
BBX 13 1 2 0
BITMAP
C618
ENDCHAR
STARTCHAR 2030
ENCODING 8240
SWIDTH 780 0
DWIDTH 13 0
BBX 12 12 1 0
BITMAP
E400
A800
A800
A800
B000
BEE0
FAB0
2AB0
2AB0
2AB0
2AB0
4EE0
ENDCHAR
STARTCHAR 2039
ENCODING 8249
SWIDTH 180 0
DWIDTH 3 0
BBX 3 7 0 1
BITMAP
20
60
C0
C0
40
60
20
ENDCHAR
STARTCHAR 203A
ENCODING 8250
SWIDTH 180 0
DWIDTH 3 0
BBX 3 7 0 1
BITMAP
80
C0
60
20
40
C0
80
ENDCHAR
STARTCHAR 2044
ENCODING 8260
SWIDTH 180 0
DWIDTH 3 0
BBX 9 12 -3 0
BITMAP
0180
0100
0200
0400
0400
0800
0800
1000
2000
2000
4000
8000
ENDCHAR
STARTCHAR 2122
ENCODING 8482
SWIDTH 1020 0
DWIDTH 17 0
BBX 15 7 1 5
BITMAP
F98E
21CE
214E
215E
2176
2136
2126
ENDCHAR
STARTCHAR 2212
ENCODING 8722
SWIDTH 480 0
DWIDTH 8 0
BBX 8 1 0 4
BITMAP
FF
ENDCHAR
STARTCHAR 2219
ENCODING 8729
SWIDTH 180 0
DWIDTH 3 0
BBX 1 1 1 4
BITMAP
80
ENDCHAR
STARTCHAR F001
ENCODING 61441
SWIDTH 300 0
DWIDTH 5 0
BBX 5 12 0 0
BITMAP
78
40
F8
D8
58
58
58
58
58
58
58
58
ENDCHAR
STARTCHAR F002
ENCODING 61442
SWIDTH 300 0
DWIDTH 5 0
BBX 5 12 0 0
BITMAP
78
58
F8
F8
58
58
58
58
58
58
58
58
ENDCHAR
ENDFONT
